<svg width="20" height="28" viewBox="0 0 20 28" fill="none" xmlns="http://www.w3.org/2000/svg">
<path d="M17.7778 16.2204V11.2C17.7778 6.6962 15.35 2.9022 12.0611 1.7612C11.7356 0.728 10.94 0 10 0C9.06 0 8.26445 0.728 7.93889 1.7612C4.65 2.9036 2.22222 6.6962 2.22222 11.2V16.2204L0.325557 18.6102C0.222176 18.74 0.14019 18.8943 0.0843171 19.0641C0.0284446 19.234 -0.000210499 19.4161 1.16408e-06 19.6V22.4C1.16408e-06 22.7713 0.117064 23.1274 0.325438 23.3899C0.533812 23.6525 0.816427 23.8 1.11111 23.8H18.8889C19.1836 23.8 19.4662 23.6525 19.6746 23.3899C19.8829 23.1274 20 22.7713 20 22.4V19.6C20.0002 19.4161 19.9716 19.234 19.9157 19.0641C19.8598 18.8943 19.7778 18.74 19.6744 18.6102L17.7778 16.2204ZM17.7778 21H2.22222V20.1796L4.11889 17.7898C4.22227 17.66 4.30426 17.5057 4.36013 17.3359C4.416 17.166 4.44466 16.9839 4.44445 16.8V11.2C4.44445 7.3402 6.93667 4.2 10 4.2C13.0633 4.2 15.5556 7.3402 15.5556 11.2V16.8C15.5556 17.1724 15.6722 17.528 15.8811 17.7898L17.7778 20.1796V21ZM10 28C10.6881 28.0011 11.3594 27.732 11.9205 27.2302C12.4817 26.7284 12.9048 26.0188 13.1311 25.2H6.86889C7.09518 26.0188 7.51831 26.7284 8.07946 27.2302C8.6406 27.732 9.31189 28.0011 10 28V28Z" fill="#193059"/>
</svg>